<mxfile host="app.diagrams.net" modified="2023-11-16T07:26:50.709Z" agent="Mozilla/5.0 (Macintosh; Intel Mac OS X 10_15_7) AppleWebKit/537.36 (KHTML, like Gecko) Chrome/119.0.0.0 Safari/537.36" etag="KhxYjFcjEbwu2r4amtgv" version="22.1.2" type="github">
  <diagram name="第 1 页" id="Yl_Y0jhFx-aN669XCNSj">
    <mxGraphModel dx="2645" dy="2150" grid="1" gridSize="10" guides="1" tooltips="1" connect="1" arrows="1" fold="1" page="1" pageScale="1" pageWidth="827" pageHeight="1169" math="0" shadow="0">
      <root>
        <mxCell id="0" />
        <mxCell id="1" parent="0" />
        <mxCell id="sgvOW9L5jxxhJpml9sWf-3" value="" style="edgeStyle=orthogonalEdgeStyle;rounded=0;orthogonalLoop=1;jettySize=auto;html=1;" edge="1" parent="1" source="sgvOW9L5jxxhJpml9sWf-1">
          <mxGeometry relative="1" as="geometry">
            <mxPoint x="520" y="300" as="targetPoint" />
          </mxGeometry>
        </mxCell>
        <mxCell id="sgvOW9L5jxxhJpml9sWf-1" value="&amp;nbsp;产品经理" style="shape=umlActor;verticalLabelPosition=bottom;verticalAlign=top;html=1;outlineConnect=0;" vertex="1" parent="1">
          <mxGeometry x="110" y="270" width="30" height="60" as="geometry" />
        </mxCell>
        <mxCell id="sgvOW9L5jxxhJpml9sWf-14" value="" style="edgeStyle=orthogonalEdgeStyle;rounded=0;orthogonalLoop=1;jettySize=auto;html=1;" edge="1" parent="1" source="sgvOW9L5jxxhJpml9sWf-5" target="sgvOW9L5jxxhJpml9sWf-13">
          <mxGeometry relative="1" as="geometry" />
        </mxCell>
        <mxCell id="sgvOW9L5jxxhJpml9sWf-56" style="edgeStyle=orthogonalEdgeStyle;rounded=0;orthogonalLoop=1;jettySize=auto;html=1;entryX=1;entryY=0.5;entryDx=0;entryDy=0;" edge="1" parent="1" source="sgvOW9L5jxxhJpml9sWf-5" target="sgvOW9L5jxxhJpml9sWf-54">
          <mxGeometry relative="1" as="geometry">
            <Array as="points">
              <mxPoint x="545" y="160" />
            </Array>
          </mxGeometry>
        </mxCell>
        <mxCell id="sgvOW9L5jxxhJpml9sWf-65" value="" style="edgeStyle=orthogonalEdgeStyle;rounded=0;orthogonalLoop=1;jettySize=auto;html=1;" edge="1" parent="1" source="sgvOW9L5jxxhJpml9sWf-5" target="sgvOW9L5jxxhJpml9sWf-13">
          <mxGeometry relative="1" as="geometry" />
        </mxCell>
        <mxCell id="sgvOW9L5jxxhJpml9sWf-5" value="全栈工程师" style="shape=umlActor;verticalLabelPosition=bottom;verticalAlign=top;html=1;outlineConnect=0;" vertex="1" parent="1">
          <mxGeometry x="530" y="270" width="30" height="60" as="geometry" />
        </mxCell>
        <mxCell id="sgvOW9L5jxxhJpml9sWf-9" value="提交评审" style="text;html=1;align=center;verticalAlign=middle;resizable=0;points=[];autosize=1;strokeColor=none;fillColor=none;" vertex="1" parent="1">
          <mxGeometry x="280" y="270" width="70" height="30" as="geometry" />
        </mxCell>
        <mxCell id="sgvOW9L5jxxhJpml9sWf-15" style="edgeStyle=orthogonalEdgeStyle;rounded=0;orthogonalLoop=1;jettySize=auto;html=1;" edge="1" parent="1" source="sgvOW9L5jxxhJpml9sWf-13" target="sgvOW9L5jxxhJpml9sWf-1">
          <mxGeometry relative="1" as="geometry" />
        </mxCell>
        <mxCell id="sgvOW9L5jxxhJpml9sWf-29" style="edgeStyle=orthogonalEdgeStyle;rounded=0;orthogonalLoop=1;jettySize=auto;html=1;entryX=0;entryY=0.5;entryDx=0;entryDy=0;" edge="1" parent="1" source="sgvOW9L5jxxhJpml9sWf-13" target="sgvOW9L5jxxhJpml9sWf-28">
          <mxGeometry relative="1" as="geometry" />
        </mxCell>
        <mxCell id="sgvOW9L5jxxhJpml9sWf-13" value="是否通过预评审" style="rhombus;whiteSpace=wrap;html=1;verticalAlign=top;" vertex="1" parent="1">
          <mxGeometry x="481.25" y="400" width="127.5" height="40" as="geometry" />
        </mxCell>
        <mxCell id="sgvOW9L5jxxhJpml9sWf-16" value="否" style="text;html=1;align=center;verticalAlign=middle;resizable=0;points=[];autosize=1;strokeColor=none;fillColor=none;" vertex="1" parent="1">
          <mxGeometry x="295" y="388" width="40" height="30" as="geometry" />
        </mxCell>
        <mxCell id="sgvOW9L5jxxhJpml9sWf-58" style="edgeStyle=orthogonalEdgeStyle;rounded=0;orthogonalLoop=1;jettySize=auto;html=1;endArrow=none;endFill=0;dashed=1;fillColor=#d5e8d4;strokeColor=#82b366;strokeWidth=2;" edge="1" parent="1" source="sgvOW9L5jxxhJpml9sWf-17">
          <mxGeometry relative="1" as="geometry">
            <mxPoint x="270" y="300" as="targetPoint" />
          </mxGeometry>
        </mxCell>
        <mxCell id="sgvOW9L5jxxhJpml9sWf-17" value="&lt;h1 style=&quot;font-size: 11px;&quot;&gt;&lt;font style=&quot;font-size: 11px;&quot;&gt;&lt;br&gt;&lt;/font&gt;&lt;/h1&gt;&lt;h1 style=&quot;font-size: 11px;&quot;&gt;&lt;font style=&quot;font-size: 11px;&quot;&gt;S1.1 提交评审&lt;/font&gt;&lt;/h1&gt;&lt;p style=&quot;font-size: 11px;&quot;&gt;&lt;font style=&quot;font-size: 11px;&quot;&gt;责任人： 产品经理&lt;/font&gt;&lt;/p&gt;&lt;p style=&quot;font-size: 11px;&quot;&gt;&lt;font style=&quot;font-size: 11px;&quot;&gt;由产品经理向全栈工程师提交单个或多个需求评审。&lt;/font&gt;&lt;/p&gt;&lt;p style=&quot;font-size: 11px;&quot;&gt;&lt;span style=&quot;background-color: initial;&quot;&gt;如果是需求包形式，需产品经理注明优先级。&lt;/span&gt;&lt;/p&gt;" style="text;html=1;strokeColor=#82b366;fillColor=#d5e8d4;spacing=5;spacingTop=-20;whiteSpace=wrap;overflow=hidden;rounded=0;" vertex="1" parent="1">
          <mxGeometry x="-160" y="140" width="260" height="130" as="geometry" />
        </mxCell>
        <mxCell id="sgvOW9L5jxxhJpml9sWf-18" value="&lt;h1 style=&quot;font-size: 11px;&quot;&gt;&lt;font style=&quot;font-size: 11px;&quot;&gt;&lt;br&gt;&lt;/font&gt;&lt;/h1&gt;&lt;h1 style=&quot;font-size: 11px;&quot;&gt;&lt;font style=&quot;font-size: 11px;&quot;&gt;S1.2.1 驳回预评审&lt;/font&gt;&lt;/h1&gt;&lt;p style=&quot;font-size: 11px;&quot;&gt;&lt;font style=&quot;font-size: 11px;&quot;&gt;责任人： 全栈工程师&lt;/font&gt;&lt;/p&gt;&lt;p style=&quot;font-size: 11px;&quot;&gt;&lt;font style=&quot;font-size: 11px;&quot;&gt;因产品设计缺陷、设计文件缺失等问题 全栈工程师 可驳回需求预评审，并提出驳回原因。&lt;/font&gt;&lt;/p&gt;" style="text;html=1;strokeColor=#d6b656;fillColor=#fff2cc;spacing=5;spacingTop=-20;whiteSpace=wrap;overflow=hidden;rounded=0;" vertex="1" parent="1">
          <mxGeometry x="140" y="455" width="260" height="130" as="geometry" />
        </mxCell>
        <mxCell id="sgvOW9L5jxxhJpml9sWf-45" style="edgeStyle=orthogonalEdgeStyle;rounded=0;orthogonalLoop=1;jettySize=auto;html=1;dashed=1;endArrow=none;endFill=0;fillColor=#fff2cc;strokeColor=#d6b656;strokeWidth=2;" edge="1" parent="1">
          <mxGeometry relative="1" as="geometry">
            <mxPoint x="540" y="85" as="sourcePoint" />
            <mxPoint x="330" y="470" as="targetPoint" />
            <Array as="points">
              <mxPoint x="470" y="85" />
              <mxPoint x="470" y="413" />
              <mxPoint x="330" y="413" />
            </Array>
          </mxGeometry>
        </mxCell>
        <mxCell id="sgvOW9L5jxxhJpml9sWf-57" style="edgeStyle=orthogonalEdgeStyle;rounded=0;orthogonalLoop=1;jettySize=auto;html=1;fillColor=#d5e8d4;strokeColor=#82b366;endArrow=none;endFill=0;dashed=1;strokeWidth=2;" edge="1" parent="1" source="sgvOW9L5jxxhJpml9sWf-19">
          <mxGeometry relative="1" as="geometry">
            <mxPoint x="420" y="300" as="targetPoint" />
          </mxGeometry>
        </mxCell>
        <mxCell id="sgvOW9L5jxxhJpml9sWf-19" value="&lt;h1 style=&quot;font-size: 11px;&quot;&gt;&lt;font style=&quot;font-size: 11px;&quot;&gt;&lt;br&gt;&lt;/font&gt;&lt;/h1&gt;&lt;h1 style=&quot;font-size: 11px;&quot;&gt;&lt;font style=&quot;font-size: 11px;&quot;&gt;S1.2 预评审&lt;/font&gt;&lt;/h1&gt;&lt;p style=&quot;font-size: 10px;&quot;&gt;&lt;font style=&quot;font-size: 10px;&quot;&gt;责任人： 全栈工程师&lt;/font&gt;&lt;/p&gt;&lt;p style=&quot;font-size: 10px;&quot;&gt;&lt;span style=&quot;font-size: 10px; background-color: initial;&quot;&gt;全栈工程师接收需求后进行预评审，从&lt;/span&gt;产品设计缺陷、设计文件是否齐全、产品设计层面是否能够实现等方面进行评审。&lt;/p&gt;&lt;font style=&quot;font-size: 11px;&quot;&gt;&lt;br&gt;&lt;/font&gt;" style="text;html=1;strokeColor=#82b366;fillColor=#d5e8d4;spacing=5;spacingTop=-20;whiteSpace=wrap;overflow=hidden;rounded=0;" vertex="1" parent="1">
          <mxGeometry x="480" y="-40" width="250" height="130" as="geometry" />
        </mxCell>
        <mxCell id="sgvOW9L5jxxhJpml9sWf-20" value="前端" style="shape=umlActor;verticalLabelPosition=bottom;verticalAlign=top;html=1;outlineConnect=0;" vertex="1" parent="1">
          <mxGeometry x="1010" y="550" width="30" height="60" as="geometry" />
        </mxCell>
        <mxCell id="sgvOW9L5jxxhJpml9sWf-21" value="后端" style="shape=umlActor;verticalLabelPosition=bottom;verticalAlign=top;html=1;outlineConnect=0;" vertex="1" parent="1">
          <mxGeometry x="1010" y="650" width="30" height="60" as="geometry" />
        </mxCell>
        <mxCell id="sgvOW9L5jxxhJpml9sWf-22" value="全栈工程师" style="shape=umlActor;verticalLabelPosition=bottom;verticalAlign=top;html=1;outlineConnect=0;" vertex="1" parent="1">
          <mxGeometry x="1010" y="750" width="30" height="60" as="geometry" />
        </mxCell>
        <mxCell id="sgvOW9L5jxxhJpml9sWf-23" value="" style="strokeWidth=2;html=1;shape=mxgraph.flowchart.annotation_2;align=left;labelPosition=right;pointerEvents=1;" vertex="1" parent="1">
          <mxGeometry x="920" y="550" width="50" height="240" as="geometry" />
        </mxCell>
        <mxCell id="sgvOW9L5jxxhJpml9sWf-25" value="是" style="text;html=1;align=center;verticalAlign=middle;resizable=0;points=[];autosize=1;strokeColor=none;fillColor=none;" vertex="1" parent="1">
          <mxGeometry x="630" y="390" width="40" height="30" as="geometry" />
        </mxCell>
        <mxCell id="sgvOW9L5jxxhJpml9sWf-26" value="&lt;h1 style=&quot;font-size: 11px;&quot;&gt;&lt;font style=&quot;font-size: 11px;&quot;&gt;&lt;br&gt;&lt;/font&gt;&lt;/h1&gt;&lt;h1 style=&quot;font-size: 11px;&quot;&gt;&lt;font style=&quot;font-size: 11px;&quot;&gt;S1.4 需求评审&lt;/font&gt;&lt;/h1&gt;&lt;p style=&quot;font-size: 11px;&quot;&gt;&lt;font style=&quot;font-size: 11px;&quot;&gt;责任人：前端、后端、全栈&lt;/font&gt;&lt;/p&gt;&lt;p style=&quot;font-size: 11px;&quot;&gt;&lt;font style=&quot;font-size: 11px;&quot;&gt;对应需求责任人 从 技术、性能、架构、产品设计缺陷、设计文件缺失等问题出发，评审该需求是否可完成，提供预计完成工时，并由全栈工程师确认。&lt;/font&gt;&lt;/p&gt;&lt;p style=&quot;font-size: 11px;&quot;&gt;&lt;br&gt;&lt;/p&gt;" style="text;html=1;strokeColor=#82b366;fillColor=#d5e8d4;spacing=5;spacingTop=-20;whiteSpace=wrap;overflow=hidden;rounded=0;" vertex="1" parent="1">
          <mxGeometry x="481.25" y="700" width="260" height="130" as="geometry" />
        </mxCell>
        <mxCell id="sgvOW9L5jxxhJpml9sWf-30" style="edgeStyle=orthogonalEdgeStyle;rounded=0;orthogonalLoop=1;jettySize=auto;html=1;exitX=0.5;exitY=1;exitDx=0;exitDy=0;entryX=0.5;entryY=0;entryDx=0;entryDy=0;" edge="1" parent="1" source="sgvOW9L5jxxhJpml9sWf-28" target="sgvOW9L5jxxhJpml9sWf-34">
          <mxGeometry relative="1" as="geometry">
            <mxPoint x="940" y="420" as="targetPoint" />
          </mxGeometry>
        </mxCell>
        <mxCell id="sgvOW9L5jxxhJpml9sWf-28" value="任务拆解" style="rounded=0;whiteSpace=wrap;html=1;" vertex="1" parent="1">
          <mxGeometry x="710" y="390" width="120" height="60" as="geometry" />
        </mxCell>
        <mxCell id="sgvOW9L5jxxhJpml9sWf-60" style="edgeStyle=orthogonalEdgeStyle;rounded=0;orthogonalLoop=1;jettySize=auto;html=1;entryX=0.5;entryY=0;entryDx=0;entryDy=0;fillColor=#d5e8d4;strokeColor=#82b366;strokeWidth=2;endArrow=none;endFill=0;dashed=1;" edge="1" parent="1" source="sgvOW9L5jxxhJpml9sWf-31" target="sgvOW9L5jxxhJpml9sWf-28">
          <mxGeometry relative="1" as="geometry" />
        </mxCell>
        <mxCell id="sgvOW9L5jxxhJpml9sWf-31" value="&lt;h1 style=&quot;font-size: 11px;&quot;&gt;&lt;font style=&quot;font-size: 11px;&quot;&gt;&lt;br&gt;&lt;/font&gt;&lt;/h1&gt;&lt;h1 style=&quot;font-size: 11px;&quot;&gt;&lt;font style=&quot;font-size: 11px;&quot;&gt;S1.3 任务拆解&lt;/font&gt;&lt;/h1&gt;&lt;p style=&quot;font-size: 11px;&quot;&gt;&lt;font style=&quot;font-size: 11px;&quot;&gt;责任人： 全栈工程师&lt;/font&gt;&lt;/p&gt;&lt;p style=&quot;font-size: 11px;&quot;&gt;&lt;font style=&quot;font-size: 11px;&quot;&gt;根据需求难度，需求工作量，现有工作量 等问题，拆解需求成任务 并派发至责任人。&lt;/font&gt;&lt;/p&gt;" style="text;html=1;strokeColor=#82b366;fillColor=#d5e8d4;spacing=5;spacingTop=-20;whiteSpace=wrap;overflow=hidden;rounded=0;" vertex="1" parent="1">
          <mxGeometry x="640" y="130" width="260" height="130" as="geometry" />
        </mxCell>
        <mxCell id="sgvOW9L5jxxhJpml9sWf-35" style="edgeStyle=orthogonalEdgeStyle;rounded=0;orthogonalLoop=1;jettySize=auto;html=1;exitX=1;exitY=0.5;exitDx=0;exitDy=0;" edge="1" parent="1" source="sgvOW9L5jxxhJpml9sWf-36" target="sgvOW9L5jxxhJpml9sWf-23">
          <mxGeometry relative="1" as="geometry" />
        </mxCell>
        <mxCell id="sgvOW9L5jxxhJpml9sWf-37" style="edgeStyle=orthogonalEdgeStyle;rounded=0;orthogonalLoop=1;jettySize=auto;html=1;entryX=0.5;entryY=0;entryDx=0;entryDy=0;" edge="1" parent="1" source="sgvOW9L5jxxhJpml9sWf-34" target="sgvOW9L5jxxhJpml9sWf-36">
          <mxGeometry relative="1" as="geometry" />
        </mxCell>
        <mxCell id="sgvOW9L5jxxhJpml9sWf-61" style="edgeStyle=orthogonalEdgeStyle;rounded=0;orthogonalLoop=1;jettySize=auto;html=1;entryX=0.5;entryY=0;entryDx=0;entryDy=0;exitX=0;exitY=0.5;exitDx=0;exitDy=0;endArrow=none;endFill=0;dashed=1;fillColor=#d5e8d4;strokeColor=#82b366;strokeWidth=2;" edge="1" parent="1" source="sgvOW9L5jxxhJpml9sWf-34" target="sgvOW9L5jxxhJpml9sWf-26">
          <mxGeometry relative="1" as="geometry" />
        </mxCell>
        <mxCell id="sgvOW9L5jxxhJpml9sWf-34" value="需求评审" style="rounded=0;whiteSpace=wrap;html=1;" vertex="1" parent="1">
          <mxGeometry x="710" y="520" width="120" height="60" as="geometry" />
        </mxCell>
        <mxCell id="sgvOW9L5jxxhJpml9sWf-38" style="edgeStyle=orthogonalEdgeStyle;rounded=0;orthogonalLoop=1;jettySize=auto;html=1;" edge="1" parent="1" source="sgvOW9L5jxxhJpml9sWf-36" target="sgvOW9L5jxxhJpml9sWf-1">
          <mxGeometry relative="1" as="geometry" />
        </mxCell>
        <mxCell id="sgvOW9L5jxxhJpml9sWf-36" value="是否通过评审" style="rhombus;whiteSpace=wrap;html=1;verticalAlign=top;" vertex="1" parent="1">
          <mxGeometry x="730" y="650" width="80" height="40" as="geometry" />
        </mxCell>
        <mxCell id="sgvOW9L5jxxhJpml9sWf-39" value="否" style="text;html=1;align=center;verticalAlign=middle;resizable=0;points=[];autosize=1;strokeColor=none;fillColor=none;" vertex="1" parent="1">
          <mxGeometry x="600" y="640" width="40" height="30" as="geometry" />
        </mxCell>
        <mxCell id="sgvOW9L5jxxhJpml9sWf-40" value="是" style="text;html=1;align=center;verticalAlign=middle;resizable=0;points=[];autosize=1;strokeColor=none;fillColor=none;" vertex="1" parent="1">
          <mxGeometry x="840" y="640" width="40" height="30" as="geometry" />
        </mxCell>
        <mxCell id="sgvOW9L5jxxhJpml9sWf-62" style="edgeStyle=orthogonalEdgeStyle;rounded=0;orthogonalLoop=1;jettySize=auto;html=1;endArrow=none;endFill=0;strokeWidth=2;dashed=1;fillColor=#ffe6cc;strokeColor=#d79b00;" edge="1" parent="1" source="sgvOW9L5jxxhJpml9sWf-41">
          <mxGeometry relative="1" as="geometry">
            <mxPoint x="315" y="670" as="targetPoint" />
          </mxGeometry>
        </mxCell>
        <mxCell id="sgvOW9L5jxxhJpml9sWf-63" style="edgeStyle=orthogonalEdgeStyle;rounded=0;orthogonalLoop=1;jettySize=auto;html=1;endArrow=none;endFill=0;dashed=1;strokeWidth=2;fillColor=#fff2cc;strokeColor=#d6b656;" edge="1" parent="1" source="sgvOW9L5jxxhJpml9sWf-41">
          <mxGeometry relative="1" as="geometry">
            <mxPoint x="480" y="765" as="targetPoint" />
          </mxGeometry>
        </mxCell>
        <mxCell id="sgvOW9L5jxxhJpml9sWf-41" value="&lt;h1 style=&quot;font-size: 11px;&quot;&gt;&lt;font style=&quot;font-size: 11px;&quot;&gt;&lt;br&gt;&lt;/font&gt;&lt;/h1&gt;&lt;h1 style=&quot;font-size: 11px;&quot;&gt;&lt;font style=&quot;font-size: 11px;&quot;&gt;S1.4.1 驳回评审&lt;/font&gt;&lt;/h1&gt;&lt;p style=&quot;font-size: 11px;&quot;&gt;&lt;font style=&quot;font-size: 11px;&quot;&gt;责任人：前端、后端、全栈&lt;/font&gt;&lt;/p&gt;&lt;p style=&quot;font-size: 11px;&quot;&gt;&lt;font style=&quot;font-size: 11px;&quot;&gt;对应需求责任人 从 技术、性能、架构、产品设计缺陷、设计文件缺失等问题出发，可驳回需求评审，并由全栈工程师确认。&lt;/font&gt;&lt;/p&gt;&lt;p style=&quot;font-size: 11px;&quot;&gt;&lt;font style=&quot;font-size: 11px;&quot;&gt;驳回后流程回至产品经理，由产品经理修改优化后，重新发起预评审。&lt;/font&gt;&lt;/p&gt;&lt;p style=&quot;font-size: 11px;&quot;&gt;&lt;font style=&quot;font-size: 11px;&quot;&gt;&lt;br&gt;&lt;/font&gt;&lt;/p&gt;&lt;p style=&quot;font-size: 11px;&quot;&gt;&lt;br&gt;&lt;/p&gt;" style="text;html=1;strokeColor=#d6b656;fillColor=#fff2cc;spacing=5;spacingTop=-20;whiteSpace=wrap;overflow=hidden;rounded=0;" vertex="1" parent="1">
          <mxGeometry x="110" y="690" width="260" height="150" as="geometry" />
        </mxCell>
        <mxCell id="sgvOW9L5jxxhJpml9sWf-44" value="&lt;h1 style=&quot;font-size: 11px;&quot;&gt;&lt;font style=&quot;font-size: 11px;&quot;&gt;&lt;br&gt;&lt;/font&gt;&lt;/h1&gt;&lt;h1 style=&quot;font-size: 11px;&quot;&gt;&lt;font style=&quot;font-size: 11px;&quot;&gt;S1.5 执行&lt;/font&gt;&lt;/h1&gt;&lt;p style=&quot;font-size: 11px;&quot;&gt;&lt;font style=&quot;font-size: 11px;&quot;&gt;责任人：前端、后端、全栈&lt;/font&gt;&lt;/p&gt;&lt;p style=&quot;font-size: 11px;&quot;&gt;根据 任务拆解 执行。在禅道登记任务开始 、 预计工时、任务结束 。&lt;/p&gt;&lt;p style=&quot;font-size: 11px;&quot;&gt;&lt;br&gt;&lt;/p&gt;" style="text;html=1;strokeColor=#b85450;fillColor=#f8cecc;spacing=5;spacingTop=-20;whiteSpace=wrap;overflow=hidden;rounded=0;" vertex="1" parent="1">
          <mxGeometry x="1100" y="565" width="260" height="125" as="geometry" />
        </mxCell>
        <mxCell id="sgvOW9L5jxxhJpml9sWf-50" style="edgeStyle=orthogonalEdgeStyle;rounded=0;orthogonalLoop=1;jettySize=auto;html=1;" edge="1" parent="1" source="sgvOW9L5jxxhJpml9sWf-47">
          <mxGeometry relative="1" as="geometry">
            <mxPoint x="569.9999999999998" y="299.9999999999999" as="targetPoint" />
          </mxGeometry>
        </mxCell>
        <mxCell id="sgvOW9L5jxxhJpml9sWf-47" value="提测/验收" style="rounded=0;whiteSpace=wrap;html=1;" vertex="1" parent="1">
          <mxGeometry x="965" y="270" width="120" height="60" as="geometry" />
        </mxCell>
        <mxCell id="sgvOW9L5jxxhJpml9sWf-48" style="edgeStyle=orthogonalEdgeStyle;rounded=0;orthogonalLoop=1;jettySize=auto;html=1;entryX=0.5;entryY=1;entryDx=0;entryDy=0;" edge="1" parent="1" source="sgvOW9L5jxxhJpml9sWf-20" target="sgvOW9L5jxxhJpml9sWf-47">
          <mxGeometry relative="1" as="geometry" />
        </mxCell>
        <mxCell id="sgvOW9L5jxxhJpml9sWf-64" style="edgeStyle=orthogonalEdgeStyle;rounded=0;orthogonalLoop=1;jettySize=auto;html=1;entryX=0.75;entryY=1;entryDx=0;entryDy=0;fillColor=#f8cecc;strokeColor=#b85450;endArrow=none;endFill=0;strokeWidth=2;dashed=1;" edge="1" parent="1" source="sgvOW9L5jxxhJpml9sWf-49" target="sgvOW9L5jxxhJpml9sWf-47">
          <mxGeometry relative="1" as="geometry" />
        </mxCell>
        <mxCell id="sgvOW9L5jxxhJpml9sWf-49" value="&lt;h1 style=&quot;font-size: 11px;&quot;&gt;&lt;font style=&quot;font-size: 11px;&quot;&gt;&lt;br&gt;&lt;/font&gt;&lt;/h1&gt;&lt;h1 style=&quot;font-size: 11px;&quot;&gt;&lt;font style=&quot;font-size: 11px;&quot;&gt;S1.6 研发完成&lt;/font&gt;&lt;/h1&gt;&lt;p style=&quot;font-size: 11px;&quot;&gt;&lt;font style=&quot;font-size: 11px;&quot;&gt;责任人：前端、后端、全栈&lt;/font&gt;&lt;/p&gt;&lt;p style=&quot;font-size: 11px;&quot;&gt;研发责任人完成任务与自测后，交付至全栈工程师。&lt;/p&gt;&lt;p style=&quot;font-size: 11px;&quot;&gt;全栈工程师一轮验收。如与计划不符，则驳回&lt;/p&gt;&lt;p style=&quot;font-size: 11px;&quot;&gt;&lt;br&gt;&lt;/p&gt;" style="text;html=1;strokeColor=#b85450;fillColor=#f8cecc;spacing=5;spacingTop=-20;whiteSpace=wrap;overflow=hidden;rounded=0;" vertex="1" parent="1">
          <mxGeometry x="1100" y="350" width="260" height="125" as="geometry" />
        </mxCell>
        <mxCell id="sgvOW9L5jxxhJpml9sWf-52" style="edgeStyle=orthogonalEdgeStyle;rounded=0;orthogonalLoop=1;jettySize=auto;html=1;entryX=0.5;entryY=0;entryDx=0;entryDy=0;entryPerimeter=0;exitX=0;exitY=0.5;exitDx=0;exitDy=0;" edge="1" parent="1" source="sgvOW9L5jxxhJpml9sWf-54">
          <mxGeometry relative="1" as="geometry">
            <mxPoint x="550" y="255" as="sourcePoint" />
            <mxPoint x="130" y="255" as="targetPoint" />
            <Array as="points">
              <mxPoint x="130" y="160" />
            </Array>
          </mxGeometry>
        </mxCell>
        <mxCell id="sgvOW9L5jxxhJpml9sWf-59" style="edgeStyle=orthogonalEdgeStyle;rounded=0;orthogonalLoop=1;jettySize=auto;html=1;entryX=0.5;entryY=0;entryDx=0;entryDy=0;fillColor=#f8cecc;strokeColor=#b85450;strokeWidth=2;endArrow=none;endFill=0;dashed=1;" edge="1" parent="1" source="sgvOW9L5jxxhJpml9sWf-53" target="sgvOW9L5jxxhJpml9sWf-54">
          <mxGeometry relative="1" as="geometry" />
        </mxCell>
        <mxCell id="sgvOW9L5jxxhJpml9sWf-53" value="&lt;h1 style=&quot;font-size: 11px;&quot;&gt;&lt;font style=&quot;font-size: 11px;&quot;&gt;&lt;br&gt;&lt;/font&gt;&lt;/h1&gt;&lt;h1 style=&quot;font-size: 11px;&quot;&gt;&lt;font style=&quot;font-size: 11px;&quot;&gt;S1.7 交付&lt;/font&gt;&lt;/h1&gt;&lt;p style=&quot;font-size: 11px;&quot;&gt;&lt;font style=&quot;font-size: 11px;&quot;&gt;责任人：前端、后端、全栈&lt;/font&gt;&lt;/p&gt;&lt;p style=&quot;font-size: 11px;&quot;&gt;全栈工程师完成任务 一轮验收后，交付至产品经理。&lt;/p&gt;&lt;p style=&quot;font-size: 11px;&quot;&gt;由产品经理最后确认。入与计划不符，则驳回&lt;/p&gt;&lt;p style=&quot;font-size: 11px;&quot;&gt;&lt;br&gt;&lt;/p&gt;" style="text;html=1;strokeColor=#b85450;fillColor=#f8cecc;spacing=5;spacingTop=-20;whiteSpace=wrap;overflow=hidden;rounded=0;" vertex="1" parent="1">
          <mxGeometry x="120" y="-30" width="260" height="125" as="geometry" />
        </mxCell>
        <mxCell id="sgvOW9L5jxxhJpml9sWf-54" value="交付/验收" style="rounded=0;whiteSpace=wrap;html=1;" vertex="1" parent="1">
          <mxGeometry x="280" y="130" width="120" height="60" as="geometry" />
        </mxCell>
      </root>
    </mxGraphModel>
  </diagram>
</mxfile>
